<svg id="Layer_1" enable-background="new 0 0 1024 1024" viewBox="0 0 1024 1024" xmlns="http://www.w3.org/2000/svg"><g id="XMLID_1019_"><g id="XMLID_12_"><path id="XMLID_16_" d="m80 679h142.1 20.3c10 0 21.3-5.6 25.9-14.9 11.5-23.2 23-46.5 34.6-69.7 18.4-37 36.7-74.1 55.1-111.1 4.2-8.5 8.4-17 12.6-25.5-18.3-2.4-36.6-4.8-54.8-7.2 4.7 11.8 9.4 23.6 14.1 35.4 11.3 28.4 22.6 56.8 33.9 85.1 13.7 34.5 27.5 69 41.2 103.5 11.8 29.7 23.7 59.4 35.5 89.1 5.8 14.5 11.4 28.9 17.3 43.4.1.2.2.4.2.6 2.5 6.3 5.2 11.3 10.8 15.6 5.1 3.9 11.6 6.7 18.2 6.4 13.1-.6 25.4-8.9 28.9-22 5.1-19.2 10.2-38.4 15.3-57.6 12.1-45.8 24.2-91.6 36.3-137.3 14.6-55.3 29.3-110.6 43.9-165.9 12.7-47.8 25.3-95.7 38-143.5 6.2-23.3 12.9-46.6 18.5-70 .1-.3.2-.6.2-.9-19.3 0-38.6 0-57.9 0 4.4 14.1 8.8 28.2 13.2 42.3 10.5 33.8 21.1 67.7 31.6 101.5 12.7 40.8 25.4 81.5 38.1 122.3 11 35.4 22 70.8 33.1 106.2 5.4 17.2 10.3 34.5 16.1 51.6.1.2.1.5.2.7 3.9 12.7 15.4 22 28.9 22h58.2 92.9 21.4c15.7 0 30.7-13.8 30-30-.7-16.3-13.2-30-30-30-19.4 0-38.8 0-58.2 0-31 0-61.9 0-92.9 0-7.1 0-14.3 0-21.4 0 9.6 7.3 19.3 14.7 28.9 22-4.4-14.1-8.8-28.2-13.2-42.3-10.5-33.8-21.1-67.7-31.6-101.5-12.7-40.8-25.4-81.5-38.1-122.3-11-35.4-22-70.8-33.1-106.2-5.4-17.2-10.3-34.5-16.1-51.6-.1-.2-.1-.5-.2-.7-3.8-12.2-15.5-22.6-28.9-22-13.1.6-25.4 8.9-28.9 22-5.1 19.2-10.2 38.4-15.3 57.6-12.1 45.8-24.2 91.6-36.3 137.3-14.6 55.3-29.2 110.6-43.8 165.9-12.7 47.8-25.3 95.7-38 143.5-6.2 23.3-12.9 46.6-18.5 70-.1.3-.2.6-.2.9h57.9c-4.7-11.8-9.4-23.6-14.1-35.4-11.3-28.4-22.6-56.8-33.9-85.1-13.7-34.5-27.5-69-41.2-103.5-11.8-29.7-23.7-59.4-35.5-89.1-5.8-14.5-11.4-28.9-17.3-43.4-.1-.2-.2-.4-.2-.6-4.5-11.4-12.1-19.8-24.9-21.5-11.1-1.5-24.6 3.7-29.9 14.3-11.5 23.2-23 46.5-34.6 69.7-18.4 37-36.7 74.1-55.1 111.1-4.2 8.5-8.4 17-12.6 25.5 8.6-5 17.3-9.9 25.9-14.9-47.4 0-94.7 0-142.1 0-6.8 0-13.6 0-20.3 0-15.7 0-30.7 13.8-30 30 .5 16.5 13 30.2 29.8 30.2z"/></g></g></svg>
